<svg xmlns="http://www.w3.org/2000/svg" width="540" height="540" viewBox="0 0 540 540" shape-rendering="crispEdges"><rect x="198" y="18" width="18" height="18" fill="#f2a6cb"/><rect x="216" y="18" width="18" height="18" fill="#f2a6cb"/><rect x="234" y="18" width="18" height="18" fill="#f2a6cb"/><rect x="252" y="18" width="18" height="18" fill="#f2a6cb"/><rect x="270" y="18" width="18" height="18" fill="#f2a6cb"/><rect x="288" y="18" width="18" height="18" fill="#f2a6cb"/><rect x="306" y="18" width="18" height="18" fill="#f2a6cb"/><rect x="324" y="18" width="18" height="18" fill="#f2a6cb"/><rect x="144" y="36" width="18" height="18" fill="#f2a6cb"/><rect x="162" y="36" width="18" height="18" fill="#f2a6cb"/><rect x="180" y="36" width="18" height="18" fill="#f2a6cb"/><rect x="198" y="36" width="18" height="18" fill="#f2a6cb"/><rect x="216" y="36" width="18" height="18" fill="#f2a6cb"/><rect x="234" y="36" width="18" height="18" fill="#f2a6cb"/><rect x="252" y="36" width="18" height="18" fill="#f2a6cb"/><rect x="270" y="36" width="18" height="18" fill="#f2a6cb"/><rect x="288" y="36" width="18" height="18" fill="#f2a6cb"/><rect x="306" y="36" width="18" height="18" fill="#f2a6cb"/><rect x="324" y="36" width="18" height="18" fill="#f2a6cb"/><rect x="342" y="36" width="18" height="18" fill="#f2a6cb"/><rect x="360" y="36" width="18" height="18" fill="#f2a6cb"/><rect x="378" y="36" width="18" height="18" fill="#f2a6cb"/><rect x="126" y="54" width="18" height="18" fill="#f2a6cb"/><rect x="144" y="54" width="18" height="18" fill="#f2a6cb"/><rect x="162" y="54" width="18" height="18" fill="#f2a6cb"/><rect x="180" y="54" width="18" height="18" fill="#191019"/><rect x="198" y="54" width="18" height="18" fill="#191019"/><rect x="216" y="54" width="18" height="18" fill="#191019"/><rect x="234" y="54" width="18" height="18" fill="#191019"/><rect x="252" y="54" width="18" height="18" fill="#191019"/><rect x="270" y="54" width="18" height="18" fill="#191019"/><rect x="288" y="54" width="18" height="18" fill="#191019"/><rect x="306" y="54" width="18" height="18" fill="#191019"/><rect x="324" y="54" width="18" height="18" fill="#191019"/><rect x="342" y="54" width="18" height="18" fill="#191019"/><rect x="360" y="54" width="18" height="18" fill="#f2a6cb"/><rect x="378" y="54" width="18" height="18" fill="#f2a6cb"/><rect x="396" y="54" width="18" height="18" fill="#f2a6cb"/><rect x="90" y="72" width="18" height="18" fill="#f2a6cb"/><rect x="108" y="72" width="18" height="18" fill="#f2a6cb"/><rect x="126" y="72" width="18" height="18" fill="#f2a6cb"/><rect x="144" y="72" width="18" height="18" fill="#191019"/><rect x="162" y="72" width="18" height="18" fill="#191019"/><rect x="180" y="72" width="18" height="18" fill="#191019"/><rect x="198" y="72" width="18" height="18" fill="#191019"/><rect x="216" y="72" width="18" height="18" fill="#191019"/><rect x="234" y="72" width="18" height="18" fill="#191019"/><rect x="252" y="72" width="18" height="18" fill="#191019"/><rect x="270" y="72" width="18" height="18" fill="#191019"/><rect x="288" y="72" width="18" height="18" fill="#191019"/><rect x="306" y="72" width="18" height="18" fill="#191019"/><rect x="324" y="72" width="18" height="18" fill="#191019"/><rect x="342" y="72" width="18" height="18" fill="#191019"/><rect x="360" y="72" width="18" height="18" fill="#191019"/><rect x="378" y="72" width="18" height="18" fill="#191019"/><rect x="396" y="72" width="18" height="18" fill="#f2a6cb"/><rect x="414" y="72" width="18" height="18" fill="#f2a6cb"/><rect x="432" y="72" width="18" height="18" fill="#f2a6cb"/><rect x="72" y="90" width="18" height="18" fill="#f2a6cb"/><rect x="90" y="90" width="18" height="18" fill="#f2a6cb"/><rect x="108" y="90" width="18" height="18" fill="#f2a6cb"/><rect x="126" y="90" width="18" height="18" fill="#191019"/><rect x="144" y="90" width="18" height="18" fill="#191019"/><rect x="162" y="90" width="18" height="18" fill="#191019"/><rect x="180" y="90" width="18" height="18" fill="#191019"/><rect x="198" y="90" width="18" height="18" fill="#191019"/><rect x="216" y="90" width="18" height="18" fill="#191019"/><rect x="234" y="90" width="18" height="18" fill="#191019"/><rect x="252" y="90" width="18" height="18" fill="#191019"/><rect x="270" y="90" width="18" height="18" fill="#191019"/><rect x="288" y="90" width="18" height="18" fill="#191019"/><rect x="306" y="90" width="18" height="18" fill="#191019"/><rect x="324" y="90" width="18" height="18" fill="#191019"/><rect x="342" y="90" width="18" height="18" fill="#191019"/><rect x="360" y="90" width="18" height="18" fill="#191019"/><rect x="378" y="90" width="18" height="18" fill="#191019"/><rect x="396" y="90" width="18" height="18" fill="#191019"/><rect x="414" y="90" width="18" height="18" fill="#f2a6cb"/><rect x="432" y="90" width="18" height="18" fill="#f2a6cb"/><rect x="450" y="90" width="18" height="18" fill="#f2a6cb"/><rect x="72" y="108" width="18" height="18" fill="#f2a6cb"/><rect x="90" y="108" width="18" height="18" fill="#f2a6cb"/><rect x="108" y="108" width="18" height="18" fill="#191019"/><rect x="126" y="108" width="18" height="18" fill="#191019"/><rect x="144" y="108" width="18" height="18" fill="#191019"/><rect x="162" y="108" width="18" height="18" fill="#191019"/><rect x="180" y="108" width="18" height="18" fill="#191019"/><rect x="198" y="108" width="18" height="18" fill="#191019"/><rect x="216" y="108" width="18" height="18" fill="#f2a2c6"/><rect x="234" y="108" width="18" height="18" fill="#f2a2c6"/><rect x="252" y="108" width="18" height="18" fill="#f2a2c6"/><rect x="270" y="108" width="18" height="18" fill="#cf7aa2"/><rect x="288" y="108" width="18" height="18" fill="#f2a2c6"/><rect x="306" y="108" width="18" height="18" fill="#f2a2c6"/><rect x="324" y="108" width="18" height="18" fill="#191019"/><rect x="342" y="108" width="18" height="18" fill="#191019"/><rect x="360" y="108" width="18" height="18" fill="#191019"/><rect x="378" y="108" width="18" height="18" fill="#191019"/><rect x="396" y="108" width="18" height="18" fill="#191019"/><rect x="414" y="108" width="18" height="18" fill="#191019"/><rect x="432" y="108" width="18" height="18" fill="#f2a6cb"/><rect x="450" y="108" width="18" height="18" fill="#f2a6cb"/><rect x="54" y="126" width="18" height="18" fill="#f2a6cb"/><rect x="72" y="126" width="18" height="18" fill="#f2a6cb"/><rect x="90" y="126" width="18" height="18" fill="#191019"/><rect x="108" y="126" width="18" height="18" fill="#191019"/><rect x="126" y="126" width="18" height="18" fill="#191019"/><rect x="144" y="126" width="18" height="18" fill="#191019"/><rect x="162" y="126" width="18" height="18" fill="#191019"/><rect x="180" y="126" width="18" height="18" fill="#f2a2c6"/><rect x="198" y="126" width="18" height="18" fill="#f2a2c6"/><rect x="216" y="126" width="18" height="18" fill="#f2a2c6"/><rect x="234" y="126" width="18" height="18" fill="#f2a2c6"/><rect x="252" y="126" width="18" height="18" fill="#f2a2c6"/><rect x="270" y="126" width="18" height="18" fill="#cf7aa2"/><rect x="288" y="126" width="18" height="18" fill="#f2a2c6"/><rect x="306" y="126" width="18" height="18" fill="#f2a2c6"/><rect x="324" y="126" width="18" height="18" fill="#f2a2c6"/><rect x="342" y="126" width="18" height="18" fill="#f2a2c6"/><rect x="360" y="126" width="18" height="18" fill="#191019"/><rect x="378" y="126" width="18" height="18" fill="#191019"/><rect x="396" y="126" width="18" height="18" fill="#f7b9d6"/><rect x="414" y="126" width="18" height="18" fill="#191019"/><rect x="432" y="126" width="18" height="18" fill="#191019"/><rect x="450" y="126" width="18" height="18" fill="#f2a6cb"/><rect x="468" y="126" width="18" height="18" fill="#f2a6cb"/><rect x="36" y="144" width="18" height="18" fill="#f2a6cb"/><rect x="54" y="144" width="18" height="18" fill="#f2a6cb"/><rect x="72" y="144" width="18" height="18" fill="#191019"/><rect x="90" y="144" width="18" height="18" fill="#191019"/><rect x="108" y="144" width="18" height="18" fill="#191019"/><rect x="126" y="144" width="18" height="18" fill="#191019"/><rect x="144" y="144" width="18" height="18" fill="#191019"/><rect x="162" y="144" width="18" height="18" fill="#f2a2c6"/><rect x="180" y="144" width="18" height="18" fill="#f2a2c6"/><rect x="198" y="144" width="18" height="18" fill="#f2a2c6"/><rect x="216" y="144" width="18" height="18" fill="#f2a2c6"/><rect x="234" y="144" width="18" height="18" fill="#f2a2c6"/><rect x="252" y="144" width="18" height="18" fill="#f2a2c6"/><rect x="270" y="144" width="18" height="18" fill="#cf7aa2"/><rect x="288" y="144" width="18" height="18" fill="#f2a2c6"/><rect x="306" y="144" width="18" height="18" fill="#f2a2c6"/><rect x="324" y="144" width="18" height="18" fill="#f2a2c6"/><rect x="342" y="144" width="18" height="18" fill="#f2a2c6"/><rect x="360" y="144" width="18" height="18" fill="#f2a2c6"/><rect x="378" y="144" width="18" height="18" fill="#f7b9d6"/><rect x="396" y="144" width="18" height="18" fill="#f7b9d6"/><rect x="414" y="144" width="18" height="18" fill="#f7b9d6"/><rect x="432" y="144" width="18" height="18" fill="#191019"/><rect x="450" y="144" width="18" height="18" fill="#191019"/><rect x="468" y="144" width="18" height="18" fill="#f2a6cb"/><rect x="486" y="144" width="18" height="18" fill="#f2a6cb"/><rect x="36" y="162" width="18" height="18" fill="#f2a6cb"/><rect x="54" y="162" width="18" height="18" fill="#f2a6cb"/><rect x="72" y="162" width="18" height="18" fill="#191019"/><rect x="90" y="162" width="18" height="18" fill="#191019"/><rect x="108" y="162" width="18" height="18" fill="#191019"/><rect x="126" y="162" width="18" height="18" fill="#191019"/><rect x="144" y="162" width="18" height="18" fill="#191019"/><rect x="162" y="162" width="18" height="18" fill="#f2a2c6"/><rect x="180" y="162" width="18" height="18" fill="#f2a2c6"/><rect x="198" y="162" width="18" height="18" fill="#f2a2c6"/><rect x="216" y="162" width="18" height="18" fill="#f2a2c6"/><rect x="234" y="162" width="18" height="18" fill="#f2a2c6"/><rect x="252" y="162" width="18" height="18" fill="#f2a2c6"/><rect x="270" y="162" width="18" height="18" fill="#cf7aa2"/><rect x="288" y="162" width="18" height="18" fill="#f2a2c6"/><rect x="306" y="162" width="18" height="18" fill="#f2a2c6"/><rect x="324" y="162" width="18" height="18" fill="#f2a2c6"/><rect x="342" y="162" width="18" height="18" fill="#f2a2c6"/><rect x="360" y="162" width="18" height="18" fill="#f2a2c6"/><rect x="378" y="162" width="18" height="18" fill="#191019"/><rect x="396" y="162" width="18" height="18" fill="#f7b9d6"/><rect x="414" y="162" width="18" height="18" fill="#191019"/><rect x="432" y="162" width="18" height="18" fill="#191019"/><rect x="450" y="162" width="18" height="18" fill="#191019"/><rect x="468" y="162" width="18" height="18" fill="#f2a6cb"/><rect x="486" y="162" width="18" height="18" fill="#f2a6cb"/><rect x="36" y="180" width="18" height="18" fill="#f2a6cb"/><rect x="54" y="180" width="18" height="18" fill="#191019"/><rect x="72" y="180" width="18" height="18" fill="#191019"/><rect x="90" y="180" width="18" height="18" fill="#191019"/><rect x="108" y="180" width="18" height="18" fill="#191019"/><rect x="126" y="180" width="18" height="18" fill="#191019"/><rect x="144" y="180" width="18" height="18" fill="#cf7aa2"/><rect x="162" y="180" width="18" height="18" fill="#cf7aa2"/><rect x="180" y="180" width="18" height="18" fill="#f2a2c6"/><rect x="198" y="180" width="18" height="18" fill="#f2a2c6"/><rect x="216" y="180" width="18" height="18" fill="#f2a2c6"/><rect x="234" y="180" width="18" height="18" fill="#f2a2c6"/><rect x="252" y="180" width="18" height="18" fill="#191019"/><rect x="270" y="180" width="18" height="18" fill="#191019"/><rect x="288" y="180" width="18" height="18" fill="#f2a2c6"/><rect x="306" y="180" width="18" height="18" fill="#f2a2c6"/><rect x="324" y="180" width="18" height="18" fill="#f2a2c6"/><rect x="342" y="180" width="18" height="18" fill="#f2a2c6"/><rect x="360" y="180" width="18" height="18" fill="#cf7aa2"/><rect x="378" y="180" width="18" height="18" fill="#cf7aa2"/><rect x="396" y="180" width="18" height="18" fill="#191019"/><rect x="414" y="180" width="18" height="18" fill="#191019"/><rect x="432" y="180" width="18" height="18" fill="#191019"/><rect x="450" y="180" width="18" height="18" fill="#191019"/><rect x="468" y="180" width="18" height="18" fill="#191019"/><rect x="486" y="180" width="18" height="18" fill="#f2a6cb"/><rect x="18" y="198" width="18" height="18" fill="#f2a6cb"/><rect x="36" y="198" width="18" height="18" fill="#f2a6cb"/><rect x="54" y="198" width="18" height="18" fill="#191019"/><rect x="72" y="198" width="18" height="18" fill="#191019"/><rect x="90" y="198" width="18" height="18" fill="#191019"/><rect x="108" y="198" width="18" height="18" fill="#191019"/><rect x="126" y="198" width="18" height="18" fill="#191019"/><rect x="144" y="198" width="18" height="18" fill="#f2a2c6"/><rect x="162" y="198" width="18" height="18" fill="#cf7aa2"/><rect x="180" y="198" width="18" height="18" fill="#cf7aa2"/><rect x="198" y="198" width="18" height="18" fill="#cf7aa2"/><rect x="216" y="198" width="18" height="18" fill="#cf7aa2"/><rect x="234" y="198" width="18" height="18" fill="#191019"/><rect x="252" y="198" width="18" height="18" fill="#191019"/><rect x="270" y="198" width="18" height="18" fill="#191019"/><rect x="288" y="198" width="18" height="18" fill="#191019"/><rect x="306" y="198" width="18" height="18" fill="#cf7aa2"/><rect x="324" y="198" width="18" height="18" fill="#cf7aa2"/><rect x="342" y="198" width="18" height="18" fill="#cf7aa2"/><rect x="360" y="198" width="18" height="18" fill="#cf7aa2"/><rect x="378" y="198" width="18" height="18" fill="#f2a2c6"/><rect x="396" y="198" width="18" height="18" fill="#191019"/><rect x="414" y="198" width="18" height="18" fill="#191019"/><rect x="432" y="198" width="18" height="18" fill="#191019"/><rect x="450" y="198" width="18" height="18" fill="#191019"/><rect x="468" y="198" width="18" height="18" fill="#191019"/><rect x="486" y="198" width="18" height="18" fill="#f2a6cb"/><rect x="504" y="198" width="18" height="18" fill="#f2a6cb"/><rect x="18" y="216" width="18" height="18" fill="#f2a6cb"/><rect x="36" y="216" width="18" height="18" fill="#f2a6cb"/><rect x="54" y="216" width="18" height="18" fill="#191019"/><rect x="72" y="216" width="18" height="18" fill="#191019"/><rect x="90" y="216" width="18" height="18" fill="#191019"/><rect x="108" y="216" width="18" height="18" fill="#191019"/><rect x="126" y="216" width="18" height="18" fill="#191019"/><rect x="144" y="216" width="18" height="18" fill="#f2a2c6"/><rect x="162" y="216" width="18" height="18" fill="#f2a2c6"/><rect x="180" y="216" width="18" height="18" fill="#f2a2c6"/><rect x="198" y="216" width="18" height="18" fill="#f2a2c6"/><rect x="216" y="216" width="18" height="18" fill="#191019"/><rect x="234" y="216" width="18" height="18" fill="#191019"/><rect x="252" y="216" width="18" height="18" fill="#191019"/><rect x="270" y="216" width="18" height="18" fill="#191019"/><rect x="288" y="216" width="18" height="18" fill="#191019"/><rect x="306" y="216" width="18" height="18" fill="#191019"/><rect x="324" y="216" width="18" height="18" fill="#f2a2c6"/><rect x="342" y="216" width="18" height="18" fill="#f2a2c6"/><rect x="360" y="216" width="18" height="18" fill="#f2a2c6"/><rect x="378" y="216" width="18" height="18" fill="#f2a2c6"/><rect x="396" y="216" width="18" height="18" fill="#191019"/><rect x="414" y="216" width="18" height="18" fill="#191019"/><rect x="432" y="216" width="18" height="18" fill="#191019"/><rect x="450" y="216" width="18" height="18" fill="#191019"/><rect x="468" y="216" width="18" height="18" fill="#191019"/><rect x="486" y="216" width="18" height="18" fill="#f2a6cb"/><rect x="504" y="216" width="18" height="18" fill="#f2a6cb"/><rect x="18" y="234" width="18" height="18" fill="#f2a6cb"/><rect x="36" y="234" width="18" height="18" fill="#f2a6cb"/><rect x="54" y="234" width="18" height="18" fill="#191019"/><rect x="72" y="234" width="18" height="18" fill="#191019"/><rect x="90" y="234" width="18" height="18" fill="#191019"/><rect x="108" y="234" width="18" height="18" fill="#191019"/><rect x="126" y="234" width="18" height="18" fill="#191019"/><rect x="144" y="234" width="18" height="18" fill="#e07fac"/><rect x="162" y="234" width="18" height="18" fill="#e07fac"/><rect x="180" y="234" width="18" height="18" fill="#f2a2c6"/><rect x="198" y="234" width="18" height="18" fill="#f2a2c6"/><rect x="216" y="234" width="18" height="18" fill="#191019"/><rect x="234" y="234" width="18" height="18" fill="#191019"/><rect x="252" y="234" width="18" height="18" fill="#191019"/><rect x="270" y="234" width="18" height="18" fill="#191019"/><rect x="288" y="234" width="18" height="18" fill="#191019"/><rect x="306" y="234" width="18" height="18" fill="#191019"/><rect x="324" y="234" width="18" height="18" fill="#f2a2c6"/><rect x="342" y="234" width="18" height="18" fill="#f2a2c6"/><rect x="360" y="234" width="18" height="18" fill="#e07fac"/><rect x="378" y="234" width="18" height="18" fill="#e07fac"/><rect x="396" y="234" width="18" height="18" fill="#191019"/><rect x="414" y="234" width="18" height="18" fill="#191019"/><rect x="432" y="234" width="18" height="18" fill="#191019"/><rect x="450" y="234" width="18" height="18" fill="#191019"/><rect x="468" y="234" width="18" height="18" fill="#191019"/><rect x="486" y="234" width="18" height="18" fill="#f2a6cb"/><rect x="504" y="234" width="18" height="18" fill="#f2a6cb"/><rect x="18" y="252" width="18" height="18" fill="#f2a6cb"/><rect x="36" y="252" width="18" height="18" fill="#f2a6cb"/><rect x="54" y="252" width="18" height="18" fill="#191019"/><rect x="72" y="252" width="18" height="18" fill="#191019"/><rect x="90" y="252" width="18" height="18" fill="#191019"/><rect x="108" y="252" width="18" height="18" fill="#191019"/><rect x="126" y="252" width="18" height="18" fill="#191019"/><rect x="144" y="252" width="18" height="18" fill="#e07fac"/><rect x="162" y="252" width="18" height="18" fill="#e07fac"/><rect x="180" y="252" width="18" height="18" fill="#f2a2c6"/><rect x="198" y="252" width="18" height="18" fill="#f2a2c6"/><rect x="216" y="252" width="18" height="18" fill="#f2a2c6"/><rect x="234" y="252" width="18" height="18" fill="#191019"/><rect x="252" y="252" width="18" height="18" fill="#191019"/><rect x="270" y="252" width="18" height="18" fill="#191019"/><rect x="288" y="252" width="18" height="18" fill="#191019"/><rect x="306" y="252" width="18" height="18" fill="#f2a2c6"/><rect x="324" y="252" width="18" height="18" fill="#f2a2c6"/><rect x="342" y="252" width="18" height="18" fill="#f2a2c6"/><rect x="360" y="252" width="18" height="18" fill="#e07fac"/><rect x="378" y="252" width="18" height="18" fill="#e07fac"/><rect x="396" y="252" width="18" height="18" fill="#191019"/><rect x="414" y="252" width="18" height="18" fill="#191019"/><rect x="432" y="252" width="18" height="18" fill="#191019"/><rect x="450" y="252" width="18" height="18" fill="#191019"/><rect x="468" y="252" width="18" height="18" fill="#191019"/><rect x="486" y="252" width="18" height="18" fill="#f2a6cb"/><rect x="504" y="252" width="18" height="18" fill="#f2a6cb"/><rect x="18" y="270" width="18" height="18" fill="#f2a6cb"/><rect x="36" y="270" width="18" height="18" fill="#f2a6cb"/><rect x="54" y="270" width="18" height="18" fill="#191019"/><rect x="72" y="270" width="18" height="18" fill="#191019"/><rect x="90" y="270" width="18" height="18" fill="#191019"/><rect x="108" y="270" width="18" height="18" fill="#191019"/><rect x="126" y="270" width="18" height="18" fill="#191019"/><rect x="144" y="270" width="18" height="18" fill="#e07fac"/><rect x="162" y="270" width="18" height="18" fill="#e07fac"/><rect x="180" y="270" width="18" height="18" fill="#e07fac"/><rect x="198" y="270" width="18" height="18" fill="#f2a2c6"/><rect x="216" y="270" width="18" height="18" fill="#cf7aa2"/><rect x="234" y="270" width="18" height="18" fill="#cf7aa2"/><rect x="252" y="270" width="18" height="18" fill="#f2a2c6"/><rect x="270" y="270" width="18" height="18" fill="#f2a2c6"/><rect x="288" y="270" width="18" height="18" fill="#cf7aa2"/><rect x="306" y="270" width="18" height="18" fill="#cf7aa2"/><rect x="324" y="270" width="18" height="18" fill="#f2a2c6"/><rect x="342" y="270" width="18" height="18" fill="#e07fac"/><rect x="360" y="270" width="18" height="18" fill="#e07fac"/><rect x="378" y="270" width="18" height="18" fill="#e07fac"/><rect x="396" y="270" width="18" height="18" fill="#191019"/><rect x="414" y="270" width="18" height="18" fill="#191019"/><rect x="432" y="270" width="18" height="18" fill="#191019"/><rect x="450" y="270" width="18" height="18" fill="#191019"/><rect x="468" y="270" width="18" height="18" fill="#191019"/><rect x="486" y="270" width="18" height="18" fill="#f2a6cb"/><rect x="504" y="270" width="18" height="18" fill="#f2a6cb"/><rect x="18" y="288" width="18" height="18" fill="#f2a6cb"/><rect x="36" y="288" width="18" height="18" fill="#f2a6cb"/><rect x="54" y="288" width="18" height="18" fill="#191019"/><rect x="72" y="288" width="18" height="18" fill="#191019"/><rect x="90" y="288" width="18" height="18" fill="#191019"/><rect x="108" y="288" width="18" height="18" fill="#191019"/><rect x="126" y="288" width="18" height="18" fill="#191019"/><rect x="144" y="288" width="18" height="18" fill="#191019"/><rect x="162" y="288" width="18" height="18" fill="#e07fac"/><rect x="180" y="288" width="18" height="18" fill="#e07fac"/><rect x="198" y="288" width="18" height="18" fill="#f2a2c6"/><rect x="216" y="288" width="18" height="18" fill="#cf7aa2"/><rect x="234" y="288" width="18" height="18" fill="#f2a2c6"/><rect x="252" y="288" width="18" height="18" fill="#f2a2c6"/><rect x="270" y="288" width="18" height="18" fill="#f2a2c6"/><rect x="288" y="288" width="18" height="18" fill="#f2a2c6"/><rect x="306" y="288" width="18" height="18" fill="#cf7aa2"/><rect x="324" y="288" width="18" height="18" fill="#f2a2c6"/><rect x="342" y="288" width="18" height="18" fill="#e07fac"/><rect x="360" y="288" width="18" height="18" fill="#e07fac"/><rect x="378" y="288" width="18" height="18" fill="#191019"/><rect x="396" y="288" width="18" height="18" fill="#191019"/><rect x="414" y="288" width="18" height="18" fill="#191019"/><rect x="432" y="288" width="18" height="18" fill="#191019"/><rect x="450" y="288" width="18" height="18" fill="#191019"/><rect x="468" y="288" width="18" height="18" fill="#191019"/><rect x="486" y="288" width="18" height="18" fill="#f2a6cb"/><rect x="504" y="288" width="18" height="18" fill="#f2a6cb"/><rect x="18" y="306" width="18" height="18" fill="#f2a6cb"/><rect x="36" y="306" width="18" height="18" fill="#f2a6cb"/><rect x="54" y="306" width="18" height="18" fill="#191019"/><rect x="72" y="306" width="18" height="18" fill="#191019"/><rect x="90" y="306" width="18" height="18" fill="#191019"/><rect x="108" y="306" width="18" height="18" fill="#191019"/><rect x="126" y="306" width="18" height="18" fill="#191019"/><rect x="144" y="306" width="18" height="18" fill="#191019"/><rect x="162" y="306" width="18" height="18" fill="#191019"/><rect x="180" y="306" width="18" height="18" fill="#e07fac"/><rect x="198" y="306" width="18" height="18" fill="#cf7aa2"/><rect x="216" y="306" width="18" height="18" fill="#e07fac"/><rect x="234" y="306" width="18" height="18" fill="#f2a2c6"/><rect x="252" y="306" width="18" height="18" fill="#f2a2c6"/><rect x="270" y="306" width="18" height="18" fill="#f2a2c6"/><rect x="288" y="306" width="18" height="18" fill="#f2a2c6"/><rect x="306" y="306" width="18" height="18" fill="#e07fac"/><rect x="324" y="306" width="18" height="18" fill="#cf7aa2"/><rect x="342" y="306" width="18" height="18" fill="#e07fac"/><rect x="360" y="306" width="18" height="18" fill="#191019"/><rect x="378" y="306" width="18" height="18" fill="#191019"/><rect x="396" y="306" width="18" height="18" fill="#191019"/><rect x="414" y="306" width="18" height="18" fill="#191019"/><rect x="432" y="306" width="18" height="18" fill="#191019"/><rect x="450" y="306" width="18" height="18" fill="#191019"/><rect x="468" y="306" width="18" height="18" fill="#191019"/><rect x="486" y="306" width="18" height="18" fill="#f2a6cb"/><rect x="504" y="306" width="18" height="18" fill="#f2a6cb"/><rect x="18" y="324" width="18" height="18" fill="#f2a6cb"/><rect x="36" y="324" width="18" height="18" fill="#f2a6cb"/><rect x="54" y="324" width="18" height="18" fill="#191019"/><rect x="72" y="324" width="18" height="18" fill="#191019"/><rect x="90" y="324" width="18" height="18" fill="#191019"/><rect x="108" y="324" width="18" height="18" fill="#191019"/><rect x="126" y="324" width="18" height="18" fill="#191019"/><rect x="144" y="324" width="18" height="18" fill="#191019"/><rect x="162" y="324" width="18" height="18" fill="#191019"/><rect x="180" y="324" width="18" height="18" fill="#191019"/><rect x="198" y="324" width="18" height="18" fill="#cf7aa2"/><rect x="216" y="324" width="18" height="18" fill="#e07fac"/><rect x="234" y="324" width="18" height="18" fill="#e07fac"/><rect x="252" y="324" width="18" height="18" fill="#e07fac"/><rect x="270" y="324" width="18" height="18" fill="#e07fac"/><rect x="288" y="324" width="18" height="18" fill="#e07fac"/><rect x="306" y="324" width="18" height="18" fill="#e07fac"/><rect x="324" y="324" width="18" height="18" fill="#cf7aa2"/><rect x="342" y="324" width="18" height="18" fill="#63b657"/><rect x="360" y="324" width="18" height="18" fill="#191019"/><rect x="378" y="324" width="18" height="18" fill="#191019"/><rect x="396" y="324" width="18" height="18" fill="#191019"/><rect x="414" y="324" width="18" height="18" fill="#191019"/><rect x="432" y="324" width="18" height="18" fill="#191019"/><rect x="450" y="324" width="18" height="18" fill="#191019"/><rect x="468" y="324" width="18" height="18" fill="#191019"/><rect x="486" y="324" width="18" height="18" fill="#f2a6cb"/><rect x="504" y="324" width="18" height="18" fill="#f2a6cb"/><rect x="36" y="342" width="18" height="18" fill="#f2a6cb"/><rect x="54" y="342" width="18" height="18" fill="#191019"/><rect x="72" y="342" width="18" height="18" fill="#191019"/><rect x="90" y="342" width="18" height="18" fill="#191019"/><rect x="108" y="342" width="18" height="18" fill="#191019"/><rect x="126" y="342" width="18" height="18" fill="#191019"/><rect x="144" y="342" width="18" height="18" fill="#f7b9d6"/><rect x="162" y="342" width="18" height="18" fill="#191019"/><rect x="180" y="342" width="18" height="18" fill="#191019"/><rect x="198" y="342" width="18" height="18" fill="#191019"/><rect x="216" y="342" width="18" height="18" fill="#e07fac"/><rect x="234" y="342" width="18" height="18" fill="#e07fac"/><rect x="252" y="342" width="18" height="18" fill="#e07fac"/><rect x="270" y="342" width="18" height="18" fill="#54a64c"/><rect x="288" y="342" width="18" height="18" fill="#e07fac"/><rect x="306" y="342" width="18" height="18" fill="#e07fac"/><rect x="324" y="342" width="18" height="18" fill="#63b657"/><rect x="342" y="342" width="18" height="18" fill="#191019"/><rect x="360" y="342" width="18" height="18" fill="#191019"/><rect x="378" y="342" width="18" height="18" fill="#f7b9d6"/><rect x="396" y="342" width="18" height="18" fill="#191019"/><rect x="414" y="342" width="18" height="18" fill="#191019"/><rect x="432" y="342" width="18" height="18" fill="#191019"/><rect x="450" y="342" width="18" height="18" fill="#191019"/><rect x="468" y="342" width="18" height="18" fill="#191019"/><rect x="486" y="342" width="18" height="18" fill="#f2a6cb"/><rect x="36" y="360" width="18" height="18" fill="#f2a6cb"/><rect x="54" y="360" width="18" height="18" fill="#f2a6cb"/><rect x="72" y="360" width="18" height="18" fill="#191019"/><rect x="90" y="360" width="18" height="18" fill="#191019"/><rect x="108" y="360" width="18" height="18" fill="#191019"/><rect x="126" y="360" width="18" height="18" fill="#f7b9d6"/><rect x="144" y="360" width="18" height="18" fill="#f7b9d6"/><rect x="162" y="360" width="18" height="18" fill="#f7b9d6"/><rect x="180" y="360" width="18" height="18" fill="#191019"/><rect x="198" y="360" width="18" height="18" fill="#191019"/><rect x="216" y="360" width="18" height="18" fill="#191019"/><rect x="234" y="360" width="18" height="18" fill="#63b657"/><rect x="252" y="360" width="18" height="18" fill="#63b657"/><rect x="270" y="360" width="18" height="18" fill="#54a64c"/><rect x="288" y="360" width="18" height="18" fill="#191019"/><rect x="306" y="360" width="18" height="18" fill="#191019"/><rect x="324" y="360" width="18" height="18" fill="#191019"/><rect x="342" y="360" width="18" height="18" fill="#191019"/><rect x="360" y="360" width="18" height="18" fill="#f7b9d6"/><rect x="378" y="360" width="18" height="18" fill="#f7b9d6"/><rect x="396" y="360" width="18" height="18" fill="#f7b9d6"/><rect x="414" y="360" width="18" height="18" fill="#191019"/><rect x="432" y="360" width="18" height="18" fill="#191019"/><rect x="450" y="360" width="18" height="18" fill="#191019"/><rect x="468" y="360" width="18" height="18" fill="#f2a6cb"/><rect x="486" y="360" width="18" height="18" fill="#f2a6cb"/><rect x="36" y="378" width="18" height="18" fill="#f2a6cb"/><rect x="54" y="378" width="18" height="18" fill="#f2a6cb"/><rect x="72" y="378" width="18" height="18" fill="#191019"/><rect x="90" y="378" width="18" height="18" fill="#191019"/><rect x="108" y="378" width="18" height="18" fill="#191019"/><rect x="126" y="378" width="18" height="18" fill="#191019"/><rect x="144" y="378" width="18" height="18" fill="#f7b9d6"/><rect x="162" y="378" width="18" height="18" fill="#191019"/><rect x="180" y="378" width="18" height="18" fill="#191019"/><rect x="198" y="378" width="18" height="18" fill="#191019"/><rect x="216" y="378" width="18" height="18" fill="#191019"/><rect x="234" y="378" width="18" height="18" fill="#191019"/><rect x="252" y="378" width="18" height="18" fill="#191019"/><rect x="270" y="378" width="18" height="18" fill="#54a64c"/><rect x="288" y="378" width="18" height="18" fill="#3d873a"/><rect x="306" y="378" width="18" height="18" fill="#191019"/><rect x="324" y="378" width="18" height="18" fill="#191019"/><rect x="342" y="378" width="18" height="18" fill="#191019"/><rect x="360" y="378" width="18" height="18" fill="#191019"/><rect x="378" y="378" width="18" height="18" fill="#f7b9d6"/><rect x="396" y="378" width="18" height="18" fill="#191019"/><rect x="414" y="378" width="18" height="18" fill="#191019"/><rect x="432" y="378" width="18" height="18" fill="#191019"/><rect x="450" y="378" width="18" height="18" fill="#191019"/><rect x="468" y="378" width="18" height="18" fill="#f2a6cb"/><rect x="486" y="378" width="18" height="18" fill="#f2a6cb"/><rect x="54" y="396" width="18" height="18" fill="#f2a6cb"/><rect x="72" y="396" width="18" height="18" fill="#f2a6cb"/><rect x="90" y="396" width="18" height="18" fill="#191019"/><rect x="108" y="396" width="18" height="18" fill="#191019"/><rect x="126" y="396" width="18" height="18" fill="#191019"/><rect x="144" y="396" width="18" height="18" fill="#191019"/><rect x="162" y="396" width="18" height="18" fill="#191019"/><rect x="180" y="396" width="18" height="18" fill="#191019"/><rect x="198" y="396" width="18" height="18" fill="#191019"/><rect x="216" y="396" width="18" height="18" fill="#191019"/><rect x="234" y="396" width="18" height="18" fill="#191019"/><rect x="252" y="396" width="18" height="18" fill="#191019"/><rect x="270" y="396" width="18" height="18" fill="#54a64c"/><rect x="288" y="396" width="18" height="18" fill="#3d873a"/><rect x="306" y="396" width="18" height="18" fill="#191019"/><rect x="324" y="396" width="18" height="18" fill="#191019"/><rect x="342" y="396" width="18" height="18" fill="#191019"/><rect x="360" y="396" width="18" height="18" fill="#191019"/><rect x="378" y="396" width="18" height="18" fill="#191019"/><rect x="396" y="396" width="18" height="18" fill="#191019"/><rect x="414" y="396" width="18" height="18" fill="#191019"/><rect x="432" y="396" width="18" height="18" fill="#191019"/><rect x="450" y="396" width="18" height="18" fill="#f2a6cb"/><rect x="468" y="396" width="18" height="18" fill="#f2a6cb"/><rect x="72" y="414" width="18" height="18" fill="#f2a6cb"/><rect x="90" y="414" width="18" height="18" fill="#f2a6cb"/><rect x="108" y="414" width="18" height="18" fill="#191019"/><rect x="126" y="414" width="18" height="18" fill="#191019"/><rect x="144" y="414" width="18" height="18" fill="#191019"/><rect x="162" y="414" width="18" height="18" fill="#191019"/><rect x="180" y="414" width="18" height="18" fill="#191019"/><rect x="198" y="414" width="18" height="18" fill="#191019"/><rect x="216" y="414" width="18" height="18" fill="#191019"/><rect x="234" y="414" width="18" height="18" fill="#191019"/><rect x="252" y="414" width="18" height="18" fill="#191019"/><rect x="270" y="414" width="18" height="18" fill="#54a64c"/><rect x="288" y="414" width="18" height="18" fill="#3d873a"/><rect x="306" y="414" width="18" height="18" fill="#191019"/><rect x="324" y="414" width="18" height="18" fill="#191019"/><rect x="342" y="414" width="18" height="18" fill="#191019"/><rect x="360" y="414" width="18" height="18" fill="#191019"/><rect x="378" y="414" width="18" height="18" fill="#191019"/><rect x="396" y="414" width="18" height="18" fill="#191019"/><rect x="414" y="414" width="18" height="18" fill="#191019"/><rect x="432" y="414" width="18" height="18" fill="#f2a6cb"/><rect x="450" y="414" width="18" height="18" fill="#f2a6cb"/><rect x="72" y="432" width="18" height="18" fill="#f2a6cb"/><rect x="90" y="432" width="18" height="18" fill="#f2a6cb"/><rect x="108" y="432" width="18" height="18" fill="#f2a6cb"/><rect x="126" y="432" width="18" height="18" fill="#191019"/><rect x="144" y="432" width="18" height="18" fill="#191019"/><rect x="162" y="432" width="18" height="18" fill="#191019"/><rect x="180" y="432" width="18" height="18" fill="#191019"/><rect x="198" y="432" width="18" height="18" fill="#191019"/><rect x="216" y="432" width="18" height="18" fill="#191019"/><rect x="234" y="432" width="18" height="18" fill="#191019"/><rect x="252" y="432" width="18" height="18" fill="#191019"/><rect x="270" y="432" width="18" height="18" fill="#54a64c"/><rect x="288" y="432" width="18" height="18" fill="#3d873a"/><rect x="306" y="432" width="18" height="18" fill="#191019"/><rect x="324" y="432" width="18" height="18" fill="#191019"/><rect x="342" y="432" width="18" height="18" fill="#191019"/><rect x="360" y="432" width="18" height="18" fill="#191019"/><rect x="378" y="432" width="18" height="18" fill="#191019"/><rect x="396" y="432" width="18" height="18" fill="#191019"/><rect x="414" y="432" width="18" height="18" fill="#f2a6cb"/><rect x="432" y="432" width="18" height="18" fill="#f2a6cb"/><rect x="450" y="432" width="18" height="18" fill="#f2a6cb"/><rect x="90" y="450" width="18" height="18" fill="#f2a6cb"/><rect x="108" y="450" width="18" height="18" fill="#f2a6cb"/><rect x="126" y="450" width="18" height="18" fill="#f2a6cb"/><rect x="144" y="450" width="18" height="18" fill="#191019"/><rect x="162" y="450" width="18" height="18" fill="#191019"/><rect x="180" y="450" width="18" height="18" fill="#191019"/><rect x="198" y="450" width="18" height="18" fill="#191019"/><rect x="216" y="450" width="18" height="18" fill="#191019"/><rect x="234" y="450" width="18" height="18" fill="#191019"/><rect x="252" y="450" width="18" height="18" fill="#191019"/><rect x="270" y="450" width="18" height="18" fill="#54a64c"/><rect x="288" y="450" width="18" height="18" fill="#3d873a"/><rect x="306" y="450" width="18" height="18" fill="#191019"/><rect x="324" y="450" width="18" height="18" fill="#191019"/><rect x="342" y="450" width="18" height="18" fill="#191019"/><rect x="360" y="450" width="18" height="18" fill="#191019"/><rect x="378" y="450" width="18" height="18" fill="#191019"/><rect x="396" y="450" width="18" height="18" fill="#f2a6cb"/><rect x="414" y="450" width="18" height="18" fill="#f2a6cb"/><rect x="432" y="450" width="18" height="18" fill="#f2a6cb"/><rect x="126" y="468" width="18" height="18" fill="#f2a6cb"/><rect x="144" y="468" width="18" height="18" fill="#f2a6cb"/><rect x="162" y="468" width="18" height="18" fill="#f2a6cb"/><rect x="180" y="468" width="18" height="18" fill="#191019"/><rect x="198" y="468" width="18" height="18" fill="#191019"/><rect x="216" y="468" width="18" height="18" fill="#191019"/><rect x="234" y="468" width="18" height="18" fill="#191019"/><rect x="252" y="468" width="18" height="18" fill="#191019"/><rect x="270" y="468" width="18" height="18" fill="#191019"/><rect x="288" y="468" width="18" height="18" fill="#191019"/><rect x="306" y="468" width="18" height="18" fill="#191019"/><rect x="324" y="468" width="18" height="18" fill="#191019"/><rect x="342" y="468" width="18" height="18" fill="#191019"/><rect x="360" y="468" width="18" height="18" fill="#f2a6cb"/><rect x="378" y="468" width="18" height="18" fill="#f2a6cb"/><rect x="396" y="468" width="18" height="18" fill="#f2a6cb"/><rect x="144" y="486" width="18" height="18" fill="#f2a6cb"/><rect x="162" y="486" width="18" height="18" fill="#f2a6cb"/><rect x="180" y="486" width="18" height="18" fill="#f2a6cb"/><rect x="198" y="486" width="18" height="18" fill="#f2a6cb"/><rect x="216" y="486" width="18" height="18" fill="#f2a6cb"/><rect x="234" y="486" width="18" height="18" fill="#f2a6cb"/><rect x="252" y="486" width="18" height="18" fill="#f2a6cb"/><rect x="270" y="486" width="18" height="18" fill="#f2a6cb"/><rect x="288" y="486" width="18" height="18" fill="#f2a6cb"/><rect x="306" y="486" width="18" height="18" fill="#f2a6cb"/><rect x="324" y="486" width="18" height="18" fill="#f2a6cb"/><rect x="342" y="486" width="18" height="18" fill="#f2a6cb"/><rect x="360" y="486" width="18" height="18" fill="#f2a6cb"/><rect x="378" y="486" width="18" height="18" fill="#f2a6cb"/><rect x="198" y="504" width="18" height="18" fill="#f2a6cb"/><rect x="216" y="504" width="18" height="18" fill="#f2a6cb"/><rect x="234" y="504" width="18" height="18" fill="#f2a6cb"/><rect x="252" y="504" width="18" height="18" fill="#f2a6cb"/><rect x="270" y="504" width="18" height="18" fill="#f2a6cb"/><rect x="288" y="504" width="18" height="18" fill="#f2a6cb"/><rect x="306" y="504" width="18" height="18" fill="#f2a6cb"/><rect x="324" y="504" width="18" height="18" fill="#f2a6cb"/></svg>